<?xml version="1.0" encoding="utf-8"?>
<svg id="master-artboard" viewBox="0 0 1400 980" version="1.1" xmlns="http://www.w3.org/2000/svg" x="0px" y="0px" style="enable-background:new 0 0 1400 980;" width="140px" height="98px"><rect id="ee-background" x="0" y="0" width="1400" height="980" style="fill: rgb(212, 236, 255); fill-opacity: 0; pointer-events: none;"/>

<linearGradient id="XMLID_25_" gradientUnits="userSpaceOnUse" x1="813.3201" y1="483.6544" x2="813.3201" y2="161.0345">
			<stop offset="0" style="stop-color:#FFFFFF"/>
			<stop offset="9.161955e-02" style="stop-color:#F7F7F7"/>
			<stop offset="0.2358" style="stop-color:#E0E0E0"/>
			<stop offset="0.4146" style="stop-color:#BCBBBB"/>
			<stop offset="0.6209" style="stop-color:#898888"/>
			<stop offset="0.8476" style="stop-color:#484848"/>
			<stop offset="1" style="stop-color:#191818"/>
		</linearGradient><linearGradient id="XMLID_26_" gradientUnits="userSpaceOnUse" x1="1066.074" y1="476.1913" x2="1066.074" y2="132.7076">
			<stop offset="0" style="stop-color:#FFFFFF"/>
			<stop offset="9.161955e-02" style="stop-color:#F7F7F7"/>
			<stop offset="0.2358" style="stop-color:#E0E0E0"/>
			<stop offset="0.4146" style="stop-color:#BCBBBB"/>
			<stop offset="0.6209" style="stop-color:#898888"/>
			<stop offset="0.8476" style="stop-color:#484848"/>
			<stop offset="1" style="stop-color:#191818"/>
		</linearGradient>
<path d="M 24.260000228881836 5.559999465942383 C 24.066667556762695 5.559999465942383 23.906665802001953 5.4633331298828125 23.780000686645508 5.270000457763672 C 23.64666748046875 5.083333969116211 23.4233341217041 4.663333892822266 23.110000610351562 4.010000228881836 C 22.796667098999023 3.363332748413086 22.33333396911621 2.719999313354492 21.719999313354492 2.0799999237060547 C 21.100000381469727 1.4466667175292969 20.40999984741211 0.9233341217041016 19.649999618530273 0.5100002288818359 C 18.170000076293945 -0.2633342742919922 16.329999923706055 -0.6499996185302734 14.130000114440918 -0.6499996185302734 C 12.076666831970215 -0.6499996185302734 10.50333309173584 -0.2133331298828125 9.40999984741211 0.6599998474121094 C 8.470000267028809 1.3999996185302734 8 2.343334197998047 8 3.489999771118164 C 8 4.936666488647461 8.449999809265137 6.133333206176758 9.350000381469727 7.079999923706055 C 10.456666946411133 8.239999771118164 12.229999542236328 9.136667251586914 14.670000076293945 9.770000457763672 C 17.110000610351562 10.40999984741211 19.073333740234375 11.066667556762695 20.559999465942383 11.739999771118164 C 22.040000915527344 12.420000076293945 23.239999771118164 13.183333396911621 24.15999984741211 14.029999732971191 C 25.920000076293945 15.630000114440918 26.799999237060547 17.666667938232422 26.799999237060547 20.139999389648438 C 26.799999237060547 23 25.78333282470703 25.270000457763672 23.75 26.950000762939453 C 21.683332443237305 28.6299991607666 18.84666633605957 29.469999313354492 15.239999771118164 29.469999313354492 C 11.5600004196167 29.469999313354492 8.300000190734863 28.80666732788086 5.460000038146973 27.479999542236328 L 3.140000104904175 26.399999618530273 L 3.140000104904175 19.139999389648438 C 3.140000104904175 17.46666717529297 3.426666736602783 16.630001068115234 4 16.630001068115234 C 4.393333435058594 16.630001068115234 4.6533331871032715 17.040000915527344 4.78000020980835 17.860000610351562 C 5.066666603088379 20.459999084472656 6.289999961853027 22.606666564941406 8.449999809265137 24.299999237060547 C 10.430000305175781 25.84666633605957 12.643333435058594 26.619998931884766 15.09000015258789 26.619998931884766 C 19.889999389648438 26.619998931884766 22.290000915527344 24.99333381652832 22.290000915527344 21.739999771118164 C 22.290000915527344 20.246665954589844 21.81999969482422 18.996665954589844 20.8799991607666 17.989999771118164 C 19.606666564941406 16.63666534423828 17.46666717529297 15.609999656677246 14.460000038146973 14.90999984741211 C 10.793333053588867 14.076666831970215 8.029999732971191 12.770000457763672 6.170000076293945 10.989999771118164 C 4.476666450500488 9.376667022705078 3.630000114440918 7.456666946411133 3.630000114440918 5.229999542236328 C 3.630000114440918 2.809999465942383 4.513333320617676 0.7866668701171875 6.28000020980835 -0.8400001525878906 C 8.300000190734863 -2.7133331298828125 11.106666564941406 -3.6500015258789062 14.699999809265137 -3.6500015258789062 C 17.066667556762695 -3.6500015258789062 19.016666412353516 -3.3366661071777344 20.549999237060547 -2.7099990844726562 C 20.836666107177734 -2.583333969116211 20.996665954589844 -2.520000457763672 21.030000686645508 -2.520000457763672 C 21.06333351135254 -2.520000457763672 21.110000610351562 -2.5266666412353516 21.170000076293945 -2.5400009155273438 C 21.236665725708008 -2.553333282470703 21.309999465942383 -2.593334197998047 21.389999389648438 -2.6599998474121094 C 21.523332595825195 -2.760000228881836 21.706666946411133 -2.9666671752929688 21.940000534057617 -3.279998779296875 C 22.3799991607666 -3.85333251953125 22.71666717529297 -4.1399993896484375 22.950000762939453 -4.1399993896484375 C 23.496665954589844 -4.1399993896484375 23.78333282470703 -3.7833328247070312 23.809999465942383 -3.0699996948242188 C 23.876667022705078 -1.0766658782958984 24.03333282470703 0.4333324432373047 24.280000686645508 1.4599990844726562 C 24.68000030517578 3.113332748413086 24.8799991607666 4.209999084472656 24.8799991607666 4.75 C 24.8799991607666 5.290000915527344 24.6733341217041 5.559999465942383 24.260000228881836 5.559999465942383 ZM 29.73243522644043 37.43000030517578 L 30.742435455322266 37.59000015258789 C 31.535768508911133 37.59000015258789 32.0890998840332 37.24333190917969 32.402435302734375 36.54999923706055 C 32.729103088378906 35.78333282470703 32.892433166503906 34.42333221435547 32.892433166503906 32.470001220703125 L 32.892433166503906 15.729999542236328 C 32.892433166503906 12.763334274291992 32.42243576049805 11.033332824707031 31.48243522644043 10.540000915527344 C 31.162433624267578 10.366666793823242 30.779102325439453 10.216667175292969 30.332435607910156 10.09000015258789 C 29.879100799560547 9.969999313354492 29.549100875854492 9.866666793823242 29.34243392944336 9.780000686645508 C 28.895767211914062 9.606666564941406 28.672433853149414 9.363332748413086 28.672433853149414 9.049999237060547 C 28.672433853149414 8.610000610351562 28.889101028442383 8.286666870117188 29.32243537902832 8.079999923706055 C 29.50243377685547 8.013334274291992 29.75910186767578 7.979999542236328 30.09243392944336 7.979999542236328 C 30.42576789855957 7.979999542236328 30.815767288208008 8.020000457763672 31.262434005737305 8.100000381469727 C 31.7091007232666 8.186666488647461 32.23910140991211 8.229999542236328 32.85243606567383 8.229999542236328 C 33.46576690673828 8.229999542236328 34.015769958496094 8.173334121704102 34.50243377685547 8.059999465942383 C 34.98910140991211 7.953332901000977 35.42576599121094 7.899999618530273 35.812435150146484 7.899999618530273 C 36.20576858520508 7.899999618530273 36.4824333190918 7.913333892822266 36.642433166503906 7.940000534057617 C 36.80910110473633 7.966667175292969 36.95576858520508 8.020000457763672 37.082435607910156 8.100000381469727 C 37.35576629638672 8.266666412353516 37.55243682861328 8.616666793823242 37.67243576049805 9.149999618530273 C 39.392433166503906 7.989999771118164 41.242435455322266 7.409999847412109 43.222434997558594 7.409999847412109 C 45.195770263671875 7.409999847412109 46.89576721191406 7.659999847412109 48.32243347167969 8.15999984741211 C 49.755767822265625 8.666666030883789 50.96910095214844 9.393333435058594 51.962432861328125 10.34000015258789 C 54.02909851074219 12.30666732788086 55.062435150146484 15.006667137145996 55.062435150146484 18.439998626708984 C 55.062435150146484 21.5 53.97576904296875 24.10333251953125 51.80243682861328 26.25 C 49.61576843261719 28.40999984741211 46.90910339355469 29.489999771118164 43.68243408203125 29.489999771118164 C 41.289100646972656 29.489999771118164 39.31909942626953 29.013334274291992 37.77243423461914 28.059999465942383 L 37.77243423461914 32.470001220703125 C 37.77243423461914 34.68333435058594 37.90576934814453 36.0433349609375 38.17243576049805 36.54999923706055 C 38.43910217285156 37.05666732788086 38.71910095214844 37.356666564941406 39.01243591308594 37.45000076293945 C 39.30576705932617 37.5433349609375 39.65910339355469 37.59000015258789 40.07243347167969 37.59000015258789 L 41.07243347167969 37.43000030517578 C 41.30576705932617 37.43000030517578 41.495765686035156 37.52333450317383 41.642433166503906 37.709999084472656 C 41.782432556152344 37.88999938964844 41.85243606567383 38.06999969482422 41.85243606567383 38.25 C 41.85243606567383 38.43000030517578 41.82243347167969 38.59333419799805 41.76243591308594 38.73999786376953 C 41.70243453979492 38.893333435058594 41.58910369873047 39.029998779296875 41.42243576049805 39.150001525878906 C 41.06909942626953 39.436668395996094 40.495765686035156 39.58000183105469 39.70243453979492 39.58000183105469 L 35.27243423461914 39.459999084472656 L 31.00243377685547 39.58000183105469 C 29.895767211914062 39.58000183105469 29.235767364501953 39.2933349609375 29.02243423461914 38.720001220703125 C 28.962434768676758 38.573333740234375 28.93243408203125 38.413333892822266 28.93243408203125 38.23999786376953 C 28.93243408203125 38.06666564941406 29.00910186767578 37.88999938964844 29.16243553161621 37.709999084472656 C 29.309101104736328 37.52333450317383 29.499101638793945 37.43000030517578 29.73243522644043 37.43000030517578 M 37.77243423461914 23.09000015258789 C 38.55243682861328 24.729999542236328 39.8724365234375 25.770000457763672 41.7324333190918 26.209999084472656 C 42.27910232543945 26.350000381469727 42.95576858520508 26.420000076293945 43.76243591308594 26.420000076293945 C 44.56909942626953 26.420000076293945 45.38909912109375 26.25 46.222434997558594 25.90999984741211 C 47.05577087402344 25.5766658782959 47.75910186767578 25.110000610351562 48.332435607910156 24.510000228881836 C 49.51243591308594 23.27666664123535 50.10243225097656 21.600000381469727 50.10243225097656 19.479999542236328 C 50.10243225097656 16.5 49.42576599121094 14.239999771118164 48.07243347167969 12.700000762939453 C 46.77243423461914 11.233333587646484 45.00910186767578 10.5 42.782432556152344 10.5 C 41.415767669677734 10.5 40.10243606567383 10.883333206176758 38.84243392944336 11.649999618530273 C 38.44243621826172 11.89666748046875 38.08576965332031 12.170000076293945 37.77243423461914 12.469999313354492 L 37.77243423461914 23.09000015258789 ZM 89.02721405029297 29.309999465942383 C 87.64054870605469 29.309999465942383 86.94721984863281 28.893333435058594 86.94721984863281 28.059999465942383 C 86.94721984863281 27.84000015258789 87.02055358886719 27.636667251586914 87.16722106933594 27.450000762939453 C 87.31388092041016 27.26333236694336 87.50054931640625 27.170000076293945 87.72721862792969 27.170000076293945 L 88.75721740722656 27.31999969482422 C 89.53721618652344 27.31999969482422 90.0838851928711 26.950000762939453 90.397216796875 26.209999084472656 C 90.73722076416016 25.41666603088379 90.90721893310547 24.010000228881836 90.90721893310547 21.989999771118164 L 90.90721893310547 15.729999542236328 C 90.90721893310547 13.736666679382324 90.74388122558594 12.383333206176758 90.41722106933594 11.670000076293945 C 90.0905532836914 11.003334045410156 89.70055389404297 10.586666107177734 89.2472152709961 10.420000076293945 C 88.79388427734375 10.253334045410156 88.38721466064453 10.120000839233398 88.02721405029297 10.020000457763672 C 87.66722106933594 9.920000076293945 87.3538818359375 9.799999237060547 87.08721923828125 9.65999984741211 C 86.82054901123047 9.526666641235352 86.68721771240234 9.366666793823242 86.68721771240234 9.180000305175781 C 86.68721771240234 8.99333381652832 86.70721435546875 8.84000015258789 86.7472152709961 8.719999313354492 C 86.78721618652344 8.593334197998047 86.8538818359375 8.476667404174805 86.94721984863281 8.370000839233398 C 87.18054962158203 8.110000610351562 87.53721618652344 7.979999542236328 88.01721954345703 7.979999542236328 L 91.03721618652344 8.229999542236328 L 94.1272201538086 7.979999542236328 C 95.20721435546875 7.979999542236328 95.7472152709961 8.690000534057617 95.7472152709961 10.110000610351562 L 95.7472152709961 11.549999237060547 C 97.03388214111328 9.576665878295898 98.71721649169922 8.296667098999023 100.7972183227539 7.709999084472656 C 101.47721862792969 7.510000228881836 102.18721771240234 7.409999847412109 102.92721557617188 7.409999847412109 C 105.46721649169922 7.409999847412109 106.73721313476562 8.223333358764648 106.73721313476562 9.850000381469727 L 106.69721984863281 14.90999984741211 C 106.69721984863281 15.103333473205566 106.64054870605469 15.263333320617676 106.5272216796875 15.390000343322754 C 106.40721893310547 15.523333549499512 106.27388000488281 15.59000015258789 106.1272201538086 15.59000015258789 C 105.77388000488281 15.59000015258789 105.51388549804688 15.273333549499512 105.34721374511719 14.640000343322754 C 105.18054962158203 14.013333320617676 104.94721984863281 13.476666450500488 104.647216796875 13.029999732971191 C 104.34721374511719 12.59000015258789 104.00721740722656 12.239999771118164 103.6272201538086 11.979999542236328 C 102.91387939453125 11.526666641235352 102.15721893310547 11.299999237060547 101.35721588134766 11.299999237060547 C 100.55722045898438 11.299999237060547 99.88388061523438 11.430000305175781 99.33721923828125 11.690000534057617 C 98.7905502319336 11.950000762939453 98.28388214111328 12.280000686645508 97.81721496582031 12.680000305175781 C 96.91722106933594 13.473333358764648 96.22721862792969 14.373332977294922 95.7472152709961 15.380000114440918 L 95.7472152709961 21.989999771118164 C 95.7472152709961 24.25666618347168 95.9405517578125 25.746665954589844 96.32721710205078 26.459999084472656 C 96.64054870605469 27.03333282470703 97.27388000488281 27.31999969482422 98.22721862792969 27.31999969482422 L 99.647216796875 27.149999618530273 C 99.88055419921875 27.149999618530273 100.06388092041016 27.246665954589844 100.19721984863281 27.440000534057617 C 100.33721923828125 27.633333206176758 100.40721893310547 27.81999969482422 100.40721893310547 28 C 100.40721893310547 28.1733341217041 100.34721374511719 28.336666107177734 100.22721862792969 28.489999771118164 C 100.11388397216797 28.636667251586914 99.9605484008789 28.773332595825195 99.76721954345703 28.899999618530273 C 99.15388488769531 29.280000686645508 98.19721984863281 29.39666748046875 96.897216796875 29.25 C 96.5838851928711 29.22333335876465 96.27055358886719 29.19333267211914 95.95721435546875 29.15999984741211 C 94.38388061523438 28.986665725708008 93.20721435546875 28.933332443237305 92.42721557617188 29 C 91.647216796875 29.066667556762695 91.09388732910156 29.116666793823242 90.76721954345703 29.149999618530273 C 90.4405517578125 29.190000534057617 90.14054870605469 29.226667404174805 89.86721801757812 29.260000228881836 C 89.59388732910156 29.293333053588867 89.31388092041016 29.309999465942383 89.02721405029297 29.309999465942383 ZM 124.7902603149414 7.709999084472656 C 126.55026245117188 7.709999084472656 127.43025970458984 8.170000076293945 127.43025970458984 9.09000015258789 C 127.43025970458984 10.069999694824219 126.60359191894531 10.559999465942383 124.95025634765625 10.559999465942383 L 118.47026062011719 10.559999465942383 L 118.47026062011719 22.049999237060547 C 118.47026062011719 24.110000610351562 119.10692596435547 25.469999313354492 120.38025665283203 26.130001068115234 C 120.81359100341797 26.363332748413086 121.31359100341797 26.479999542236328 121.88025665283203 26.479999542236328 C 123.23358917236328 26.479999542236328 124.42692565917969 25.790000915527344 125.46025848388672 24.40999984741211 C 125.91358947753906 23.803333282470703 126.46359252929688 23.5 127.11026000976562 23.5 C 127.31025695800781 23.5 127.48025512695312 23.593334197998047 127.62025451660156 23.780000686645508 C 127.75359344482422 23.96666717529297 127.82025909423828 24.14666748046875 127.82025909423828 24.31999969482422 C 127.82025909423828 24.886667251586914 127.56025695800781 25.516666412353516 127.0402603149414 26.209999084472656 C 125.41358947753906 28.39666748046875 123.2402572631836 29.489999771118164 120.52025604248047 29.489999771118164 C 117.13359069824219 29.489999771118164 114.98692321777344 28.356666564941406 114.08026123046875 26.09000015258789 C 113.75359344482422 25.270000457763672 113.59025573730469 24.26333236694336 113.59025573730469 23.06999969482422 L 113.59025573730469 10.559999465942383 L 111.5402603149414 10.559999465942383 C 110.10692596435547 10.559999465942383 109.3902587890625 10.116666793823242 109.3902587890625 9.229999542236328 C 109.3902587890625 8.876667022705078 109.56359100341797 8.566667556762695 109.9102554321289 8.299999237060547 C 110.25692749023438 8.033332824707031 110.74359130859375 7.826665878295898 111.3702621459961 7.680000305175781 C 111.9902572631836 7.540000915527344 112.57025909423828 7.276666641235352 113.11026000976562 6.8899993896484375 C 113.65026092529297 6.510000228881836 114.10359191894531 6.020000457763672 114.47026062011719 5.420000076293945 C 115.14359283447266 4.366666793823242 115.65026092529297 2.6833324432373047 115.9902572631836 0.37000083923339844 C 116.22359466552734 -1.0766658782958984 116.69358825683594 -1.7999992370605469 117.40026092529297 -1.7999992370605469 C 118.11359405517578 -1.7999992370605469 118.47026062011719 -1.0766658782958984 118.47026062011719 0.37000083923339844 L 118.47026062011719 7.8600006103515625 L 120.58026123046875 7.790000915527344 C 122.22026062011719 7.736665725708008 123.62359619140625 7.709999084472656 124.7902603149414 7.709999084472656 ZM 31.709999084472656 75.1300048828125 C 28.383333206176758 78.29000091552734 24.260000228881836 79.87000274658203 19.34000015258789 79.87000274658203 C 14.073333740234375 79.87000274658203 9.84000015258789 78.27666473388672 6.639999866485596 75.09000396728516 C 5.1533331871032715 73.6300048828125 4.013333320617676 71.92333221435547 3.2200000286102295 69.97000122070312 C 2.426666736602783 68.01000213623047 2.0299999713897705 66.04666900634766 2.0299999713897705 64.08000183105469 C 2.0299999713897705 62.11333465576172 2.2300000190734863 60.37333679199219 2.630000114440918 58.86000061035156 C 3.0233333110809326 57.35333251953125 3.5833332538604736 55.970001220703125 4.309999942779541 54.709999084472656 C 5.03000020980835 53.45000076293945 5.9066667556762695 52.32666778564453 6.940000057220459 51.340003967285156 C 7.973333358764648 50.3466682434082 9.119999885559082 49.513336181640625 10.380000114440918 48.840003967285156 C 12.973333358764648 47.44667053222656 15.883333206176758 46.75 19.110000610351562 46.75 C 21.43666648864746 46.75 23.6733341217041 47.27000045776367 25.81999969482422 48.310001373291016 C 26.213333129882812 48.503334045410156 26.5766658782959 48.60000228881836 26.90999984741211 48.60000228881836 C 27.236665725708008 48.60000228881836 27.670000076293945 48.32666778564453 28.209999084472656 47.779998779296875 C 28.75 47.233333587646484 29.1200008392334 46.87000274658203 29.31999969482422 46.69000244140625 C 29.513334274291992 46.51000213623047 29.706666946411133 46.42000198364258 29.899999618530273 46.42000198364258 C 30.280000686645508 46.42000198364258 30.469999313354492 46.72666931152344 30.469999313354492 47.34000015258789 C 30.469999313354492 47.94667053222656 30.483333587646484 48.45333480834961 30.510000228881836 48.86000061035156 C 30.530000686645508 49.27333450317383 30.566667556762695 49.676666259765625 30.6200008392334 50.06999969482422 C 30.726667404174805 50.85000228881836 30.89666748046875 51.67000198364258 31.1299991607666 52.529998779296875 C 31.610000610351562 54.376670837402344 31.850000381469727 55.47333526611328 31.850000381469727 55.81999969482422 C 31.850000381469727 56.160003662109375 31.760000228881836 56.400001525878906 31.579999923706055 56.540000915527344 C 31.406665802001953 56.686668395996094 31.229999542236328 56.76000213623047 31.049999237060547 56.76000213623047 C 30.610000610351562 56.76000213623047 30.296667098999023 56.583335876464844 30.110000610351562 56.230003356933594 C 27.75666618347168 51.910003662109375 23.729999542236328 49.75 18.030000686645508 49.75 C 16.60333251953125 49.75 15.223333358764648 50.06666564941406 13.890000343322754 50.70000076293945 C 12.556666374206543 51.333335876464844 11.373332977294922 52.220001220703125 10.34000015258789 53.36000061035156 C 8.039999961853027 55.8466682434082 6.889999866485596 58.840003967285156 6.889999866485596 62.340003967285156 C 6.889999866485596 66.80667114257812 8.283333778381348 70.38666534423828 11.069999694824219 73.08000183105469 C 13.710000038146973 75.61333465576172 17.040000915527344 76.8800048828125 21.059999465942383 76.8800048828125 C 24.233333587646484 76.8800048828125 26.64666748046875 75.57333374023438 28.299999237060547 72.95999908447266 C 28.926666259765625 71.97333526611328 29.433332443237305 70.71666717529297 29.81999969482422 69.19000244140625 C 30.040000915527344 68.33000183105469 30.41666603088379 67.9000015258789 30.950000762939453 67.9000015258789 C 31.456666946411133 67.9000015258789 31.709999084472656 68.336669921875 31.709999084472656 69.20999908447266 L 31.709999084472656 75.1300048828125 ZM 53.995887756347656 79.52000427246094 C 53.20255661010742 79.52000427246094 52.73255920410156 78.80333709716797 52.58589172363281 77.37000274658203 C 51.392555236816406 78.55667114257812 49.799224853515625 79.34333801269531 47.80588912963867 79.7300033569336 C 47.185890197753906 79.836669921875 46.359222412109375 79.88999938964844 45.325889587402344 79.88999938964844 C 44.285888671875 79.88999938964844 43.21922302246094 79.73333740234375 42.12588882446289 79.41999816894531 C 41.03255844116211 79.1066665649414 40.12255859375 78.66333770751953 39.39588928222656 78.09000396728516 C 37.929222106933594 76.92333221435547 37.19588851928711 75.30333709716797 37.19588851928711 73.2300033569336 C 37.19588851928711 70.97000122070312 38.14922332763672 69.24666595458984 40.05588912963867 68.05999755859375 C 41.68255615234375 67.04666900634766 43.71922302246094 66.54000091552734 46.165889739990234 66.54000091552734 C 48.49922180175781 66.54000091552734 50.62255859375 67.04666900634766 52.535888671875 68.05999755859375 L 52.535888671875 65.72000122070312 C 52.535888671875 63.026668548583984 51.285888671875 61.43333435058594 48.785888671875 60.94000244140625 C 48.019222259521484 60.7933349609375 47.27922439575195 60.720001220703125 46.56589126586914 60.720001220703125 C 45.845890045166016 60.720001220703125 45.23922348022461 60.75 44.74589157104492 60.810001373291016 C 44.25255584716797 60.87000274658203 43.782554626464844 60.996665954589844 43.33589172363281 61.19000244140625 C 42.38922119140625 61.583335876464844 41.492557525634766 62.356666564941406 40.64588928222656 63.51000213623047 C 40.005889892578125 64.38333129882812 39.48588943481445 64.81999969482422 39.08589172363281 64.81999969482422 C 38.69255828857422 64.81999969482422 38.49589157104492 64.61333465576172 38.49589157104492 64.20000457763672 C 38.49589157104492 63.95333480834961 38.575889587402344 63.55666732788086 38.73588943481445 63.01000213623047 C 39.095890045166016 61.88999938964844 39.2758903503418 60.45000076293945 39.2758903503418 58.69000244140625 C 39.2758903503418 58.003334045410156 39.535888671875 57.660003662109375 40.05588912963867 57.660003662109375 C 40.60255813598633 57.660003662109375 41.07255554199219 57.78333282470703 41.46588897705078 58.029998779296875 C 42.01255798339844 58.37000274658203 42.325889587402344 58.540000915527344 42.40589141845703 58.540000915527344 C 44.37922286987305 58.05333709716797 46.212554931640625 57.810001373291016 47.90589141845703 57.810001373291016 C 49.59922409057617 57.810001373291016 51.09255599975586 58.029998779296875 52.38589096069336 58.470001220703125 C 53.679222106933594 58.91666793823242 54.695892333984375 59.52333450317383 55.435890197753906 60.290000915527344 C 56.68922424316406 61.583335876464844 57.315887451171875 63.55666732788086 57.315887451171875 66.20999908447266 L 57.315887451171875 72.13999938964844 C 57.315887451171875 74.586669921875 57.43922424316406 76.06666564941406 57.685890197753906 76.58000183105469 C 57.93255615234375 77.09333801269531 58.20255661010742 77.3933334350586 58.495887756347656 77.4800033569336 C 58.789222717285156 77.57333374023438 59.15589141845703 77.62000274658203 59.595890045166016 77.62000274658203 L 60.765892028808594 77.45000457763672 C 60.99922180175781 77.45000457763672 61.185890197753906 77.55000305175781 61.325889587402344 77.75 C 61.472557067871094 77.95000457763672 61.54589080810547 78.12000274658203 61.54589080810547 78.26000213623047 C 61.54589080810547 78.40666961669922 61.515892028808594 78.55333709716797 61.45589065551758 78.70000457763672 C 61.38922119140625 78.85333251953125 61.282554626464844 78.98999786376953 61.13589096069336 79.11000061035156 C 60.74922180175781 79.42333221435547 60.20255661010742 79.58000183105469 59.495887756347656 79.58000183105469 L 56.33589172363281 79.4000015258789 L 53.995887756347656 79.52000427246094 M 52.535888671875 70.63999938964844 C 50.92255401611328 69.63333129882812 49.20255661010742 69.1300048828125 47.37588882446289 69.1300048828125 C 44.81589126586914 69.1300048828125 43.152557373046875 69.86000061035156 42.38589096069336 71.31999969482422 C 42.152557373046875 71.76000213623047 42.035888671875 72.24666595458984 42.035888671875 72.77999877929688 C 42.035888671875 74.1866683959961 42.505889892578125 75.24000549316406 43.445892333984375 75.94000244140625 C 44.37922286987305 76.64666748046875 45.695892333984375 77 47.39588928222656 77 C 49.46922302246094 77 51.18255615234375 76.18000030517578 52.535888671875 74.54000091552734 L 52.535888671875 70.63999938964844 ZM 98.55851745605469 64.24000549316406 C 98.55851745605469 64.65333557128906 98.36184692382812 64.86000061035156 97.96852111816406 64.86000061035156 C 97.6085205078125 64.86000061035156 97.15185546875 64.51000213623047 96.59851837158203 63.810001373291016 C 96.04518127441406 63.116668701171875 95.49518585205078 62.586669921875 94.94851684570312 62.220001220703125 C 94.40185546875 61.86000061035156 93.8351821899414 61.583335876464844 93.24851989746094 61.38999938964844 C 92.3351821899414 61.07666778564453 91.26518249511719 60.92000198364258 90.03852081298828 60.92000198364258 C 88.81185150146484 60.92000198364258 87.815185546875 61.05333709716797 87.04851531982422 61.31999969482422 C 86.27518463134766 61.586669921875 85.5851821899414 61.99333572387695 84.978515625 62.540000915527344 C 83.69851684570312 63.746665954589844 83.05851745605469 65.4433364868164 83.05851745605469 67.6300048828125 C 83.05851745605469 70.40333557128906 83.8351821899414 72.65333557128906 85.38851928710938 74.3800048828125 C 86.86851501464844 76.00666809082031 88.68852233886719 76.81999969482422 90.84851837158203 76.81999969482422 C 93.24185180664062 76.81999969482422 95.03185272216797 75.97666931152344 96.21852111816406 74.29000091552734 C 96.57852172851562 73.77000427246094 96.93185424804688 73.49333190917969 97.27851867675781 73.45999908447266 C 97.62518310546875 73.42666625976562 97.90185546875 73.51333618164062 98.1085205078125 73.72000122070312 C 98.315185546875 73.92666625976562 98.41851806640625 74.18000030517578 98.41851806640625 74.4800033569336 C 98.41851806640625 74.77999877929688 98.28852081298828 75.15333557128906 98.02851867675781 75.5999984741211 C 97.76851654052734 76.04000091552734 97.41184997558594 76.47000122070312 96.9585189819336 76.88999938964844 C 96.50518798828125 77.30333709716797 95.98518371582031 77.6933364868164 95.39851379394531 78.06000518798828 C 94.81185150146484 78.41999816894531 94.19184875488281 78.7366714477539 93.53852081298828 79.01000213623047 C 90.74518585205078 80.16999816894531 87.8785171508789 80.19000244140625 84.93852233886719 79.06999969482422 C 82.07185363769531 77.97666931152344 80.04185485839844 76.0633316040039 78.84851837158203 73.33000183105469 C 78.26184844970703 71.96333312988281 77.96852111816406 70.63999938964844 77.96852111816406 69.36000061035156 C 77.96852111816406 68.08000183105469 78.10518646240234 66.99000549316406 78.3785171508789 66.09000396728516 C 78.65184783935547 65.19000244140625 79.03852081298828 64.33000183105469 79.53852081298828 63.51000213623047 C 80.03852081298828 62.69000244140625 80.64518737792969 61.93000030517578 81.3585205078125 61.230003356933594 C 82.07852172851562 60.529998779296875 82.88185119628906 59.93000030517578 83.76851654052734 59.43000030517578 C 85.67518615722656 58.35000228881836 87.74851989746094 57.810001373291016 89.98851776123047 57.810001373291016 C 91.57518768310547 57.810001373291016 92.90851593017578 58.060001373291016 93.98851776123047 58.560001373291016 C 94.19518280029297 58.660003662109375 94.38518524169922 58.709999084472656 94.55851745605469 58.709999084472656 C 94.73851776123047 58.709999084472656 94.94518280029297 58.660003662109375 95.17852020263672 58.560001373291016 C 95.41184997558594 58.46666717529297 95.64851379394531 58.366668701171875 95.88851928710938 58.26000213623047 L 96.54851531982422 57.95000076293945 C 96.76851654052734 57.856666564941406 96.95185089111328 57.810001373291016 97.09851837158203 57.810001373291016 C 97.55184936523438 57.810001373291016 97.77851867675781 58.08000183105469 97.77851867675781 58.62000274658203 C 97.77851867675781 59.160003662109375 97.78185272216797 59.63666534423828 97.78852081298828 60.05000305175781 C 97.79518127441406 60.470001220703125 97.81851959228516 60.86333465576172 97.8585205078125 61.230003356933594 C 97.94518280029297 61.970001220703125 98.11184692382812 62.66666793823242 98.3585205078125 63.31999969482422 C 98.49185180664062 63.693336486816406 98.55851745605469 64 98.55851745605469 64.24000549316406 ZM 113.2042465209961 79.70999908447266 L 108.77424621582031 79.4000015258789 C 107.89424896240234 79.4000015258789 107.03424835205078 79.45000457763672 106.19424438476562 79.55000305175781 C 105.354248046875 79.65666961669922 104.7542495727539 79.70999908447266 104.39424896240234 79.70999908447266 C 104.03424835205078 79.70999908447266 103.72091674804688 79.66333770751953 103.4542465209961 79.56999969482422 C 103.18758392333984 79.48333740234375 102.97757720947266 79.3800048828125 102.82424926757812 79.26000213623047 C 102.56424713134766 79.04000091552734 102.43424987792969 78.79666900634766 102.43424987792969 78.52999877929688 C 102.43424987792969 78.26333618164062 102.50758361816406 78.03666687011719 102.65425109863281 77.8499984741211 C 102.79425048828125 77.66333770751953 102.98091125488281 77.56999969482422 103.21424865722656 77.56999969482422 L 104.24424743652344 77.72000122070312 C 105.0042495727539 77.72000122070312 105.55091094970703 77.34333801269531 105.88424682617188 76.59000396728516 C 106.22425079345703 75.79666900634766 106.39424896240234 74.39666748046875 106.39424896240234 72.38999938964844 L 106.39424896240234 51.69000244140625 C 106.39424896240234 49.38333511352539 106.22757720947266 47.94667053222656 105.89424896240234 47.380001068115234 C 105.55424499511719 46.81333541870117 105.1609115600586 46.443336486816406 104.71424865722656 46.27000045776367 C 104.26091766357422 46.0966682434082 103.78091430664062 45.983333587646484 103.27424621582031 45.93000030517578 C 102.27424621582031 45.85000228881836 101.77424621582031 45.51000213623047 101.77424621582031 44.90999984741211 C 101.77424621582031 44.71666717529297 101.88091278076172 44.51000213623047 102.09424591064453 44.290000915527344 C 102.30757904052734 44.06999969482422 102.59757995605469 43.96000289916992 102.96424865722656 43.96000289916992 C 103.33757781982422 43.96000289916992 103.6609115600586 43.97333526611328 103.93424987792969 44 L 104.79425048828125 44.09000015258789 C 105.6675796508789 44.17000198364258 106.30757904052734 44.21000289916992 106.71424865722656 44.21000289916992 C 107.11425018310547 44.21000289916992 107.47091674804688 44.1966667175293 107.78424835205078 44.17000198364258 L 109.05424499511719 44.02000045776367 C 109.44091796875 43.95333480834961 109.76091003417969 43.92000198364258 110.01425170898438 43.92000198364258 C 110.267578125 43.92000198364258 110.47758483886719 43.943336486816406 110.64424896240234 43.9900016784668 C 110.81758117675781 44.0433349609375 110.94424438476562 44.15666961669922 111.02424621582031 44.33000183105469 C 111.17758178710938 44.630001068115234 111.2542495727539 45.38333511352539 111.2542495727539 46.59000015258789 L 111.2542495727539 61.480003356933594 C 113.52091217041016 59.03333282470703 116.17424774169922 57.810001373291016 119.21424865722656 57.810001373291016 C 122.6675796508789 57.810001373291016 124.89424896240234 59.176666259765625 125.89424896240234 61.910003662109375 C 126.2475814819336 62.876670837402344 126.42424774169922 64.02333068847656 126.42424774169922 65.3499984741211 L 126.42424774169922 72.38999938964844 C 126.42424774169922 74.5633316040039 126.55091857910156 75.93333435058594 126.80424499511719 76.5 C 127.05757904052734 77.06666564941406 127.30757904052734 77.41000366210938 127.55424499511719 77.52999877929688 C 127.80091857910156 77.65666961669922 128.08758544921875 77.72000122070312 128.41424560546875 77.72000122070312 L 129.50424194335938 77.56999969482422 C 129.73757934570312 77.56999969482422 129.91758728027344 77.66667175292969 130.04425048828125 77.86000061035156 C 130.17758178710938 78.05333709716797 130.24424743652344 78.23333740234375 130.24424743652344 78.4000015258789 C 130.24424743652344 78.56000518798828 130.2175750732422 78.71333312988281 130.16424560546875 78.86000061035156 C 130.104248046875 79 130.00091552734375 79.13333129882812 129.854248046875 79.26000213623047 C 129.3609161376953 79.65333557128906 128.4842529296875 79.78333282470703 127.2242431640625 79.6500015258789 C 125.65757751464844 79.48333740234375 124.64091491699219 79.4000015258789 124.17424774169922 79.4000015258789 L 119.84424591064453 79.70999908447266 C 118.67091369628906 79.70999908447266 117.9742431640625 79.43000030517578 117.7542495727539 78.87000274658203 C 117.70091247558594 78.71666717529297 117.67424774169922 78.55333709716797 117.67424774169922 78.3800048828125 C 117.67424774169922 78.21333312988281 117.74424743652344 78.03666687011719 117.88424682617188 77.8499984741211 C 118.03091430664062 77.66333770751953 118.22758483886719 77.56999969482422 118.4742431640625 77.56999969482422 L 119.55424499511719 77.72000122070312 C 120.36091613769531 77.72000122070312 120.90090942382812 77.35333251953125 121.17424774169922 76.62000274658203 C 121.44757843017578 75.88666534423828 121.58424377441406 74.47666931152344 121.58424377441406 72.38999938964844 L 121.58424377441406 66.54000091552734 C 121.58424377441406 65.06666564941406 121.3742446899414 63.983333587646484 120.9542465209961 63.290000915527344 C 120.52758026123047 62.60333251953125 120.03758239746094 62.10000228881836 119.48424530029297 61.779998779296875 C 118.93091583251953 61.46666717529297 118.28758239746094 61.310001373291016 117.55424499511719 61.310001373291016 C 116.82758331298828 61.310001373291016 116.17758178710938 61.40333557128906 115.604248046875 61.590003967285156 C 115.03091430664062 61.776668548583984 114.48424530029297 62.026668548583984 113.96424865722656 62.340003967285156 C 112.93758392333984 62.980003356933594 112.03424835205078 63.80666732788086 111.2542495727539 64.81999969482422 L 111.2542495727539 72.38999938964844 C 111.2542495727539 74.65666961669922 111.39424896240234 76.06000518798828 111.67424774169922 76.5999984741211 C 111.9542465209961 77.13999938964844 112.23757934570312 77.45999908447266 112.52424621582031 77.56000518798828 C 112.8109130859375 77.66667175292969 113.15425109863281 77.72000122070312 113.55424499511719 77.72000122070312 L 114.57424926757812 77.56999969482422 C 114.80757904052734 77.56999969482422 114.9975814819336 77.66333770751953 115.14424896240234 77.8499984741211 C 115.28424835205078 78.03666687011719 115.354248046875 78.23999786376953 115.354248046875 78.45999908447266 C 115.354248046875 79.2933349609375 114.63758087158203 79.70999908447266 113.2042465209961 79.70999908447266 Z" transform="matrix(9.53147029876709, 0, 0, 9.53147029876709, 47.017974853515625, 86.06600952148438)" style="fill: rgb(97, 137, 47); white-space: pre; color: rgb(97, 137, 47);"/><g transform="matrix(2.3499982357025146, 0, 0, 2.3499982357025146, 460.77161692797586, 24.207260944557163)"><g id="g-1" transform="matrix(1, 0, 0, 1, 0, 0)">
	<g id="g-2">
		<path class="st0" d="M58,49h100v100H58V49z" style="fill: rgb(34, 38, 41); fill-opacity: 0;"/>
	</g>
</g></g><g transform="matrix(0.622923731803894, -0.476791799068451, 0.476791799068451, 0.622923731803894, -363.5131225585937, 339.40497662431125)"><g transform="matrix(1, 0, 0, 1, 1.1368683772161603e-13, 0)"><path class="st2" d="M1208.2,722.1c-0.1,32.4,20.4,61.1,40.3,88.9c16.9,23.7,33.1,46.3,35,69.9c23.4-27.2,37.9-62.1,39.2-100.4&#10;&#9;&#9;&#9;C1285.7,750.1,1247.4,730.6,1208.2,722.1z" style="fill: rgb(115, 163, 56); stroke: rgb(51, 51, 51);" transform="matrix(1, 0, 0, 1, 1.1368683772161603e-13, 0)"/><path class="st2" d="M1110.1,723.4c-4.9,1.2-9.8,2.5-14.7,3.9c-53.9,16.2-90.7,47-97.5,53c1.2,37.2,14.9,71.3,37.1,98.2&#10;&#9;&#9;&#9;c2.8-22.7,18.5-44.6,34.8-67.5C1089.5,783.6,1109.6,755.3,1110.1,723.4z" style="fill: rgb(115, 163, 56); stroke: rgb(51, 51, 51);" transform="matrix(1, 0, 0, 1, 1.1368683772161603e-13, 0)"/><path class="st2" d="M1264.7,897c7.5-23.2-10-47.6-30.3-75.9c-21.1-29.5-44.8-62.7-43.5-102c-7.3-1-14.6-1.6-22-1.8v220.1&#10;&#9;&#9;&#9;c37.4-2,71.4-16.6,97.9-39.7L1264.7,897z" style="fill: rgb(115, 163, 56); stroke: rgb(51, 51, 51);" transform="matrix(1, 0, 0, 1, 1.1368683772161603e-13, 0)"/><path class="st2" d="M1282.4,671.3c-0.3-0.1-31.8-10.8-53.2,2.8c-9.7,6.1-16.1,16.6-19.1,31.1c35,7.3,72.8,23.2,111.9,52.7&#10;&#9;&#9;&#9;c-3.6-33.8-17.6-64.5-38.7-88.9L1282.4,671.3z" style="fill: rgb(115, 163, 56); stroke: rgb(51, 51, 51);" transform="matrix(1, 0, 0, 1, 1.1368683772161603e-13, 0)"/><path class="st2" d="M1090.4,710.8c5.7-1.7,11.8-3.3,18.1-4.7c-3-15-9.5-25.8-19.3-32c-21.4-13.5-52.9-2.9-53.2-2.8l-0.2-0.5&#10;&#9;&#9;&#9;c-20.1,24-33.4,53.8-37,86.6C1015.8,744.5,1047.9,723.5,1090.4,710.8z" style="fill: rgb(115, 163, 56); stroke: rgb(51, 51, 51);" transform="matrix(1, 0, 0, 1, 1.1368683772161603e-13, 0)"/><path class="st2" d="M1098.3,659.4c14.2,8.9,23.3,23.5,27.2,43.5c8.3-1.3,17.1-2.1,26.1-2.5v-87.7c-36.1,1.9-69.1,15.6-95.2,37.4&#10;&#9;&#9;&#9;C1069.3,649.4,1084.8,651,1098.3,659.4z" style="fill: rgb(115, 163, 56); stroke: rgb(51, 51, 51);" transform="matrix(1, 0, 0, 1, 1.1368683772161603e-13, 0)"/><path class="st2" d="M1168.9,700.3c7.8,0.2,15.8,0.9,24,2c4-19.7,13.1-34.1,27.1-42.9c14.3-9,31-10.2,44.3-9.1&#10;&#9;&#9;&#9;c-26.1-21.8-59.2-35.6-95.4-37.5V700.3z" style="fill: rgb(115, 163, 56); stroke: rgb(51, 51, 51);" transform="matrix(1, 0, 0, 1, 1.1368683772161603e-13, 0)"/><path class="st2" d="M1151.6,937.4V717.5c-8,0.4-16.1,1.2-24.2,2.5c0.9,38.9-22.6,71.8-43.5,101c-20.2,28.3-37.7,52.7-30.3,75.9&#10;&#9;&#9;&#9;l-0.5,0.2C1079.7,920.5,1114,935.4,1151.6,937.4z" style="fill: rgb(115, 163, 56); stroke: rgb(51, 51, 51);" transform="matrix(1, 0, 0, 1, 1.1368683772161603e-13, 0)"/></g></g><g transform="matrix(2.044564723968506, 0, 0, 2.044564723968506, 525.9799020841566, 311.0339834138903)"><g transform="matrix(0.4707816243171692, 0, 0, 0.4707816243171692, -4.506888866424447, 6.721073150634766)"><g transform="matrix(1, 0, 0, 1, 1.9326762412674725e-12, 4.547473508864641e-13)">
		<path class="st1" d="M89.1,12.7L56.4,129c-2,0.8-3.4,2.6-3.4,4.9c0,1.2,0.4,2.2,1,3.1c-1.6,0.7-2.7,2.1-3,3.9&#10;&#9;&#9;&#9;c-9.1-1-16.9,3-19.6,20.1c-1.9,11.8,0.9,23.9,11.4,26.1c12.3,2.5,21.3-7.2,23-20.5c1.2-9-1-17.2-5.4-21.7c0.6-0.9,1-1.9,1-3.1&#10;&#9;&#9;&#9;c0-1.2-0.4-2.2-1-3.1c1.8-0.8,3.1-2.6,3.1-4.8c0-1.2-0.4-2.3-1.1-3.2L95.1,14.4L89.1,12.7z M59.8,166.3&#10;&#9;&#9;&#9;c-1.9,9.5-6.8,16.8-14.9,14.7c-8.1-2.1-8.8-8.4-7.2-18.9c2.3-15,8.1-17,15.6-14.9C59.1,148.9,61.6,156.8,59.8,166.3z M399.9,161&#10;&#9;&#9;&#9;c-2.7-17.1-10.6-21.1-19.6-20.1c-0.3-1.7-1.5-3.2-3-3.9c0.6-0.9,1-1.9,1-3.1c0-2.2-1.4-4.1-3.4-4.9L342.1,12.7l-6,1.7l32.8,116.3&#10;&#9;&#9;&#9;c-0.7,0.9-1.1,2-1.1,3.2c0,2.1,1.3,4,3.1,4.8c-0.6,0.9-1,1.9-1,3.1c0,1.2,0.4,2.2,1,3.1c-4.5,4.5-6.6,12.8-5.4,21.7&#10;&#9;&#9;&#9;c1.8,13.3,10.7,23,23,20.5C399,184.9,401.8,172.8,399.9,161z M386.4,181c-8.1,2.1-13-5.2-14.9-14.7c-1.9-9.5,0.7-17.4,6.5-19&#10;&#9;&#9;&#9;c7.4-2.1,13.3-0.1,15.6,14.9C395.2,172.6,394.5,178.9,386.4,181z" style="fill: rgb(115, 163, 56);"/>
		<path d="M215.6,126.7c-16.8,0-22.3,10.5-22.3,20.4c0,9.9,1.7,12.6,1.7,12.6s-2-0.1-3.4,1.3c-1.4,1.4,1,12.8,3.6,13.6&#10;&#9;&#9;&#9;c2.7,0.8,5.2,2.1,5.2,5.3c0,3.2,1.3,9.8-4.2,10.1c-12.4,0.8-18.3-3.8-26-3.8c-15.1,0-17,6.1-25.6,6.7c-16.8,1.1-52.3-8.8-62.6-9.7&#10;&#9;&#9;&#9;c-10.3-1-19.9-2.5-19.9-2.5s-22.9-5.2-28.6-1.7c-5.7,3.4-7.1,6.9-5.9,11.6c1.1,4.8,6.5,10.9,11.3,11.6c4.8,0.8,9-4,16.6-3.1&#10;&#9;&#9;&#9;c6.5,0.8,13.2,1.5,18.1,3.1c12.8,4.1,35.3,13.1,49.1,14.8c13.7,1.7,33.6,0.6,39.1,3.6c5.5,3.1,10.3,8.8,11.8,20.8&#10;&#9;&#9;&#9;c1.5,12,4,23.1,7.4,36.5c3.4,13.4,3.1,30.7,2.1,38c-1,7.3-3.2,14.2-5.2,20.6c-2.9,9.5-3,36.6,1,65.5c3.2,23.7,7.8,63.4,12.4,81.7&#10;&#9;&#9;&#9;c4.6,18.3,4.6,40.8,4.6,51.3c0,10.5,8.2,18.9,11.6,18.9c3.4,0,5.7-10.3,5.7-18.1c0-7.8-3.6-17.2-3.6-24.8s5-46.2,5-46.2l1-6.2&#10;&#9;&#9;&#9;l1,6.2c0,0,5,38.6,5,46.2s-3.6,17-3.6,24.8c0,7.8,2.3,18.1,5.7,18.1c3.4,0,11.6-8.4,11.6-18.9c0-10.5,0-33,4.6-51.3&#10;&#9;&#9;&#9;c4.6-18.3,9.1-58,12.4-81.7c4-28.9,3.9-56,1-65.5c-1.9-6.4-4.2-13.3-5.2-20.6c-1-7.3-1.3-24.6,2.1-38c3.4-13.4,5.9-24.4,7.4-36.5&#10;&#9;&#9;&#9;c1.5-12,6.3-17.8,11.8-20.8c5.5-3.1,25.4-1.9,39.1-3.6c13.7-1.7,36.3-10.7,49.1-14.8c4.9-1.6,11.6-2.3,18.1-3.1&#10;&#9;&#9;&#9;c7.6-1,11.8,3.8,16.6,3.1c4.8-0.8,10.1-6.9,11.3-11.6c1.1-4.8-0.2-8.2-5.9-11.6c-5.7-3.4-28.6,1.7-28.6,1.7s-9.5,1.5-19.9,2.5&#10;&#9;&#9;&#9;c-10.3,1-45.8,10.9-62.6,9.7c-8.6-0.6-10.5-6.7-25.6-6.7c-7.6,0-13.6,4.6-26,3.8c-5.5-0.3-4.2-6.9-4.2-10.1c0-3.2,2.5-4.6,5.2-5.3&#10;&#9;&#9;&#9;c2.7-0.8,5.1-12.1,3.6-13.6c-1.4-1.4-3.4-1.3-3.4-1.3s1.7-2.7,1.7-12.6C238,137.1,232.4,126.7,215.6,126.7z" style="fill: rgb(115, 163, 56);"/>
	</g></g></g></svg>